<?xml version="1.0" encoding="utf-8"?>
<!-- Generator: Adobe Illustrator 19.0.1, SVG Export Plug-In . SVG Version: 6.00 Build 0)  -->
<svg version="1.1" id="레이어_1" xmlns="http://www.w3.org/2000/svg" xmlns:xlink="http://www.w3.org/1999/xlink" x="0px"
	 y="0px" viewBox="-109 254.5 622.6 86.8" style="enable-background:new -109 254.5 622.6 86.8;" xml:space="preserve">
<style type="text/css">
	.st0{fill:#00548A;}
	.st1{fill:#005891;}
	.st2{fill:#FFFFFF;}
</style>
<g>
	<g>
		<path class="st0" d="M28.9,292.3c10.9,2.6,13.6,9.5,13.6,16c0,10-7.1,17.5-21.5,17.5c-15.1,0-21.9-8-21.9-14.1
			c0-3.1,2.1-5.2,5-5.2c6.5,0,4.8,10,16.8,10c6.2,0,9.6-3.6,9.6-7.3c0-2.2-1-4.7-5.1-5.8l-13.4-3.6c-10.8-2.9-12.8-9.3-12.8-15.2
			c0-12.4,10.7-17,20.8-17c9.3,0,20.3,5.6,20.3,13c0,3.2-2.5,5-5.4,5c-5.5,0-4.5-8.3-15.6-8.3c-5.5,0-8.6,2.7-8.6,6.6s4.4,5.1,8.1,6
			L28.9,292.3z"/>
		<path class="st0" d="M68,283.1c12.8,0,19.6,9.3,19.6,21.2c0,11.3-5.2,21.2-19.6,21.2c-14.4,0-19.6-10-19.6-21.2
			C48.4,292.4,55.2,283.1,68,283.1z M68,317.2c6.3,0,9-6,9-12.9c0-7.3-2.8-12.8-9-12.8s-9,5.5-9,12.8C59,311.2,61.7,317.2,68,317.2z
			"/>
		<path class="st0" d="M95,273.6c0-3.7,2.1-5.6,5.3-5.6s5.3,1.9,5.3,5.6v46.3c0,3.7-2.1,5.6-5.3,5.6s-5.3-1.9-5.3-5.6V273.6z"/>
		<path class="st0" d="M150.5,319.9c0,3.4-1.5,5.6-4.8,5.6c-3.3,0-4.8-2.2-4.8-5.6v-1.5h-0.1c-3,4.2-6.8,7.1-12.9,7.1
			c-6.4,0-13.4-3.4-13.4-14.8v-21.9c0-3,1.2-5.6,5.3-5.6c4.1,0,5.3,2.6,5.3,5.6v19.7c0,4.6,2.1,7.8,6.7,7.8c3.7,0,8.1-3.2,8.1-8.9
			v-18.6c0-3,1.2-5.6,5.3-5.6c4.1,0,5.3,2.6,5.3,5.6V319.9z"/>
		<path class="st0" d="M161.7,291.6h-1.8c-3,0-4.2-1.2-4.2-3.7s1.2-3.7,4.2-3.7h1.8v-6.9c0-3.7,2.1-5.6,5.3-5.6
			c3.2,0,5.3,1.9,5.3,5.6v6.9h3.2c3.1,0,4.8,1,4.8,3.7c0,2.7-1.7,3.7-4.8,3.7h-3.2v22.5c0,1.7,0.9,2.6,2.8,2.6h1.5
			c2.3,0,3.7,1.4,3.7,3.8c0,3.2-2.6,5-7.7,5c-7.7,0-10.9-3.4-10.9-10V291.6z"/>
		<path class="st0" d="M191.7,267.6c3,0,5.5,2.6,5.5,5.9c0,3.2-2.5,5.9-5.5,5.9s-5.5-2.6-5.5-5.9
			C186.1,270.2,188.6,267.6,191.7,267.6z M186.4,288.8c0-3,1.2-5.6,5.3-5.6c4.1,0,5.3,2.6,5.3,5.6v31.1c0,3-1.2,5.6-5.3,5.6
			c-4.1,0-5.3-2.6-5.3-5.6V288.8z"/>
		<path class="st0" d="M224,283.1c12.8,0,19.6,9.3,19.6,21.2c0,11.3-5.2,21.2-19.6,21.2c-14.4,0-19.6-10-19.6-21.2
			C204.4,292.4,211.2,283.1,224,283.1z M224,317.2c6.3,0,9-6,9-12.9c0-7.3-2.8-12.8-9-12.8s-9,5.5-9,12.8
			C215,311.2,217.6,317.2,224,317.2z"/>
		<path class="st0" d="M250.4,288.8c0-3.4,1.5-5.6,4.8-5.6c3.3,0,4.8,2.2,4.8,5.6v1.5h0.1c3-4.2,6.8-7.1,12.8-7.1
			c6.4,0,13.4,3.4,13.4,14.8v21.9c0,3-1.2,5.6-5.3,5.6c-4.1,0-5.3-2.6-5.3-5.6v-19.7c0-4.6-2.1-7.8-6.7-7.8c-3.7,0-8.1,3.2-8.1,8.9
			v18.6c0,3-1.2,5.6-5.3,5.6c-4.1,0-5.3-2.6-5.3-5.6L250.4,288.8L250.4,288.8z"/>
		<path class="st0" d="M307.6,276.3c0-5.6,2.8-7.4,7-7.4h18.2c10,0,18.1,5.3,18.1,17.6c0,10.1-6.6,17.6-18.1,17.6h-13.2v15.1
			c0,3.8-2.3,6.3-6,6.3c-3.6,0-6-2.5-6-6.3L307.6,276.3L307.6,276.3z M319.5,294.4h11.1c4.8,0,8.3-3.1,8.3-7.9
			c0-5.6-3.7-7.9-9.6-7.9h-9.9L319.5,294.4L319.5,294.4z"/>
		<path class="st0" d="M373.2,283.1c12.8,0,19.6,9.3,19.6,21.2c0,11.3-5.2,21.2-19.6,21.2c-14.4,0-19.6-10-19.6-21.2
			C353.7,292.4,360.5,283.1,373.2,283.1z M373.2,317.2c6.3,0,9-6,9-12.9c0-7.3-2.8-12.8-9-12.8s-9,5.5-9,12.8
			C364.2,311.2,366.9,317.2,373.2,317.2z"/>
		<path class="st0" d="M400.2,288.4c0-3.4,2.1-5.3,4.8-5.3s4.8,1.9,4.8,5.3v4.3h0.1c1.2-4.7,3.6-9.6,8.8-9.6c3.3,0,5.8,2.3,5.8,5.5
			c0,4.2-2.6,5.6-5.2,5.6h-1.9c-4.3,0-6.6,3.2-6.6,12.5v13.1c0,3-1.2,5.6-5.3,5.6c-4.1,0-5.3-2.6-5.3-5.6L400.2,288.4L400.2,288.4z"
			/>
		<path class="st0" d="M432,291.6h-1.8c-3,0-4.2-1.2-4.2-3.7s1.2-3.7,4.2-3.7h1.8v-6.9c0-3.7,2.1-5.6,5.3-5.6c3.2,0,5.3,1.9,5.3,5.6
			v6.9h3.2c3.1,0,4.8,1,4.8,3.7c0,2.7-1.7,3.7-4.8,3.7h-3.2v22.5c0,1.7,0.9,2.6,2.8,2.6h1.5c2.3,0,3.7,1.4,3.7,3.8
			c0,3.2-2.6,5-7.7,5c-7.7,0-10.9-3.4-10.9-10V291.6z"/>
		<path class="st0" d="M491.3,313.6c0,4.7,1.1,5.8,1.1,7.6c0,2.5-2.3,4.3-4.8,4.3c-4.6,0-6.1-3.1-6.2-6.6c-4.1,4.9-8.9,6.6-14.5,6.6
			c-6,0-12-4.4-12-11.5c0-9.3,6.7-12,14.8-13l6.5-0.8c2.5-0.3,4.6-0.9,4.6-4.2s-3.1-4.6-6.7-4.6c-7.8,0-8.1,6.2-12.3,6.2
			c-2.7,0-4.5-2-4.5-4.3c0-4.5,6-10.2,16.8-10.2c10.2,0,17.2,3.5,17.2,11.6L491.3,313.6L491.3,313.6z M480.7,305.5
			c-1.2,1.2-3.3,1.5-4.6,1.8l-3.8,0.6c-4.4,0.7-6.8,2.2-6.8,5.6c0,2.5,2.3,4.6,5.9,4.6c5.8,0,9.4-4,9.4-8.2V305.5z"/>
		<path class="st0" d="M501,273.6c0-3.7,2.1-5.6,5.3-5.6s5.3,1.9,5.3,5.6v46.3c0,3.7-2.1,5.6-5.3,5.6s-5.3-1.9-5.3-5.6V273.6z"/>
	</g>
	<circle class="st1" cx="-63.4" cy="297.9" r="43.4"/>
	<path class="st2" d="M-62,272.3c-11.2,0-20,8.7-20,20v26.5c0,0-0.4,3.5,1.3,6c1.2,1.7,2.8,2.9,4.6,3c1.3-0.1,1.3-1.7,1.3-1.7v-18.2
		c3.4,2.8,7.9,4.4,12.8,4.4c11.2,0,20-8.7,20-20C-42,280.9-50.8,272.3-62,272.3 M-62,305.3c-7.1,0-12.8-5.9-12.8-13.1
		c0-7.2,5.7-13.1,12.8-13.1c7.1,0,12.8,5.8,12.8,13.1C-49.2,299.4-54.9,305.3-62,305.3"/>
</g>
</svg>
